<?xml version="1.0" encoding="UTF-8"?>
<svg xmlns="http://www.w3.org/2000/svg" id="uuid-fb295534-c0d4-4664-a01d-698da635520f" viewBox="0 0 699.31 361.38">
  <g id="uuid-fc172e5f-9bcf-4004-a06b-7aef2abc4e7b">
    <g id="uuid-97d3114c-fa15-4c7d-a26f-291b2c862ad5">
      <g id="uuid-cc2e715b-4374-4cf6-9a02-18f86fb17069">
        <path d="M47.9,183.24C19.29,183.24,0,164.25,0,146.37V36.87C0,18.99,19.29,0,47.9,0s46.62,18.99,46.62,36.87v34h-38.57v-28.7c0-4.63-3.6-7.51-8.05-7.51-4.88,0-8.48,2.87-8.48,7.51v98.9c0,4.64,3.6,7.51,8.48,7.51,4.45,0,8.05-2.87,8.05-7.51v-28.69h38.57v33.99c0,17.88-18.44,36.87-46.62,36.87h0Z" style="fill:#fff; stroke-width:0px;"></path>
        <path d="M142.84,101.85v78.08h-37.3V47.25h35.19l2.32,13.9c5.51-8.17,13.14-13.9,30.31-13.9v31.35c-20.56,0-30.51,11.33-30.51,23.25h0Z" style="fill:#fff; stroke-width:0px;"></path>
        <path d="M234.16,81.46c0-4.41-3.6-6.4-8.05-6.4s-7.84,1.99-7.84,6.4v66.46c0,4.41,3.39,6.4,7.84,6.4s8.05-1.99,8.05-6.4v-66.46h0ZM226.11,182.14c-25.01,0-45.35-12.81-45.35-32.46v-69.76c0-19.87,20.35-32.67,45.35-32.67s45.35,12.8,45.35,32.67v69.76c0,19.65-20.35,32.46-45.35,32.46h0Z" style="fill:#fff; stroke-width:0px;"></path>
        <path d="M324.86,182.14c-27.34,0-43.65-12.81-43.65-32.46v-13.47h34.12v11.26c0,4.42,3.4,7.51,8.9,7.51s8.69-2.21,8.69-9.71c0-11.7-8.69-15.24-28.4-25.61-18.44-9.27-22.68-22.3-22.68-36.42,0-27.16,19.71-35.98,43.02-35.98,25.22,0,42.6,12.8,42.6,32.67v12.36h-33.91v-10.15c0-4.42-2.33-7.06-7.84-7.06-5.93,0-8.69,2.65-8.69,9.05,0,9.72,5.51,10.6,19.92,18.1,26.91,13.47,31.15,30.24,31.15,44.15,0,18.55-12.5,35.77-43.24,35.77h0Z" style="fill:#fff; stroke-width:0px;"></path>
        <path d="M420.01,182.14c-27.34,0-43.65-12.81-43.65-32.46v-13.47h34.12v11.26c0,4.42,3.39,7.51,8.9,7.51s8.69-2.21,8.69-9.71c0-11.7-8.69-15.24-28.4-25.61-18.44-9.27-22.67-22.3-22.67-36.42,0-27.16,19.71-35.98,43.01-35.98,25.22,0,42.6,12.8,42.6,32.67v12.36h-33.91v-10.15c0-4.42-2.33-7.06-7.85-7.06-5.93,0-8.69,2.65-8.69,9.05,0,9.72,5.52,10.6,19.93,18.1,26.92,13.47,31.15,30.24,31.15,44.15,0,18.55-12.5,35.77-43.24,35.77h0Z" style="fill:#fff; stroke-width:0px;"></path>
        <polygon points="512.63 34.66 512.63 74.84 540.81 74.84 540.81 107.51 512.63 107.51 512.63 179.93 473.63 179.93 473.63 3.31 550.35 3.31 550.35 34.66 512.63 34.66 512.63 34.66" style="fill:#fff; stroke-width:0px;"></polygon>
        <path d="M559.24,179.93V49.67h37.51v130.26h-37.51ZM559.24,34.62V3.31h37.51v31.31h-37.51Z" style="fill:#fff; stroke-width:0px;"></path>
        <path d="M659.17,76.17v67.55c0,3.75,3.6,6.41,7.84,6.41h9.75v29.8h-17.8c-23.74,0-37.09-16.34-37.09-33.12v-70.64h-16.11v-26.5h16.11v-22.51h37.3v22.51h19.28v26.5h-19.28Z" style="fill:#fff; stroke-width:0px;"></path>
        <path d="M693.36,54.15c-.36-.2-.93-.3-1.72-.3h-1.21v2.92h1.28c.6,0,1.05-.06,1.35-.18.56-.22.83-.64.83-1.26,0-.58-.18-.98-.53-1.18h0ZM691.83,52.88c1,0,1.73.1,2.2.29.83.35,1.25,1.03,1.25,2.04,0,.72-.26,1.25-.79,1.59-.28.18-.67.32-1.17.39.63.1,1.09.36,1.38.79.29.43.44.84.44,1.25v.59c0,.19,0,.38.02.6.02.21.04.36.07.42l.05.1h-1.33s-.01-.05-.02-.08c0-.02-.01-.05-.02-.08l-.03-.26v-.64c0-.93-.26-1.55-.76-1.84-.29-.17-.82-.26-1.58-.26h-1.11v3.17h-1.43v-8.06h2.82ZM687.5,52.47c-1.22,1.23-1.84,2.72-1.84,4.47s.61,3.26,1.83,4.5c1.23,1.24,2.71,1.86,4.47,1.86s3.24-.62,4.47-1.86c1.22-1.24,1.84-2.74,1.84-4.5s-.61-3.23-1.84-4.47c-1.24-1.24-2.73-1.86-4.47-1.86s-3.22.62-4.46,1.86h0ZM697.17,62.14c-1.44,1.44-3.17,2.16-5.2,2.16s-3.76-.72-5.19-2.16c-1.42-1.43-2.13-3.17-2.13-5.21s.72-3.74,2.15-5.18c1.43-1.42,3.15-2.14,5.17-2.14s3.76.72,5.2,2.14c1.43,1.43,2.15,3.15,2.15,5.18s-.72,3.77-2.15,5.21h0Z" style="fill:#fff; stroke-width:0px;"></path>
        <rect x="496.88" y="211.87" width="6.63" height="119.99" style="fill:#fff; stroke-width:0px;"></rect>
        <rect y="354.75" width="678.46" height="6.63" style="fill:#fff; stroke-width:0px;"></rect>
      </g>
      <path d="M37.12,243.85c.16-9.76-3.2-16-12.16-16-10.08,0-12.32,10.24-12.32,18.08v56.16c0,6.4,2.08,15.84,12.16,15.84h.16c8.16,0,13.12-4.64,13.12-12v-26.56h-12.96v-11.04h25.6v36c0,16.48-11.36,25.28-25.6,25.28C8.32,329.61,0,319.69,0,302.73v-55.04C0,231.85,4.48,216.17,25.12,216.17c17.28,0,24.16,9.6,24.64,24.64v3.04h-12.64Z" style="fill:#e0fd53; stroke-width:0px;"></path>
      <path d="M139.91,328.49l-5.12-24.8h-24.8l-4.96,24.8h-12.16l23.68-111.36h11.84l24,111.36h-12.48ZM121.99,239.85l-4.64,25.92-5.28,26.08h20.48l-5.44-26.4-4.48-25.6h-.64Z" style="fill:#e0fd53; stroke-width:0px;"></path>
      <path d="M252.7,251.37l-8.8,23.04-11.52,27.04h-5.92l-11.52-27.04-8.8-23.04h-.64v77.12h-12.64v-111.36h12.8l13.28,34.72,10.24,27.2h.48l10.56-28,12.96-33.92h12.96v111.36h-12.64v-77.12h-.8Z" style="fill:#e0fd53; stroke-width:0px;"></path>
      <path d="M312.74,328.49v-111.36h47.68v11.68h-35.04v37.28h30.4v11.68h-30.4v39.2h35.04v11.52h-47.68Z" style="fill:#e0fd53; stroke-width:0px;"></path>
      <path d="M412.16,301.61c0,8.32,3.04,15.84,13.44,15.84,12.96,0,13.76-8.8,13.76-19.2,0-13.12-1.76-15.84-15.04-21.44-20.96-9.12-24-17.76-24-31.36,0-17.12,8.64-29.28,26.24-29.28,19.36,0,25.28,13.44,25.28,24.48v3.2h-12.48c0-9.92-3.68-15.68-13.44-15.68-10.88,0-12.96,9.44-12.96,17.12,0,9.28.96,13.76,17.44,20.32,19.04,7.68,21.44,16.16,21.44,32.48,0,19.04-6.72,31.52-26.24,31.52-18.08,0-26.08-11.04-26.08-25.44v-2.56h12.64Z" style="fill:#e0fd53; stroke-width:0px;"></path>
    </g>
    <path d="M569.14,249.07c-3.38,1.14-6.14,2.3-8.27,3.47-2.13,1.17-3.76,2.37-4.88,3.59-1.12,1.22-1.83,2.54-2.15,3.94h47.42v7.64h-58.73v-1.01c0-3.85.73-7.14,2.18-9.87,1.46-2.73,3.44-5.1,5.97-7.1,2.52-2,5.47-3.71,8.85-5.11,3.38-1.4,6.99-2.68,10.84-3.82,2.65-.83,5.16-1.58,7.53-2.26,2.37-.68,4.48-1.4,6.36-2.18,1.87-.78,3.34-1.7,4.41-2.77s1.6-2.3,1.6-3.71c0-.99-.27-1.86-.82-2.61-.55-.75-1.43-1.39-2.65-1.91-1.22-.52-2.8-.91-4.72-1.17-1.92-.26-4.21-.39-6.86-.39-1.87,0-3.93.13-6.16.39-2.24.26-4.5.66-6.79,1.21-2.29.55-4.58,1.22-6.86,2.03-2.29.81-4.39,1.75-6.32,2.85,0-.05-.09-.25-.27-.58-.18-.34-.39-.75-.62-1.25-.23-.49-.51-1.03-.82-1.6-.31-.57-.6-1.1-.86-1.6-.26-.49-.47-.92-.62-1.29-.16-.36-.23-.52-.23-.47,2.13-1.25,4.42-2.34,6.86-3.28,2.44-.94,4.95-1.69,7.53-2.26s5.12-1.01,7.64-1.33c2.52-.31,4.93-.47,7.21-.47,4.47,0,8.32.31,11.54.94,3.22.62,5.89,1.53,7.99,2.73,2.11,1.2,3.65,2.64,4.64,4.33.99,1.69,1.48,3.58,1.48,5.66,0,1.56-.35,3.08-1.05,4.56-.7,1.48-1.81,2.89-3.31,4.21-1.51,1.33-3.48,2.56-5.93,3.71-2.44,1.14-5.46,2.21-9.05,3.2-4.68,1.25-8.71,2.45-12.09,3.59Z" style="fill:#e0fd53; stroke-width:0px;"></path>
    <path d="M645.42,216.15c4.63,0,8.88.64,12.75,1.91,3.87,1.28,7.21,3.06,10.02,5.34,2.81,2.29,4.98,5.04,6.51,8.27,1.53,3.22,2.3,6.76,2.3,10.61,0,2.55-.35,4.95-1.05,7.21s-1.73,4.37-3.08,6.32c-1.35,1.95-2.98,3.7-4.88,5.26-1.9,1.56-4,2.89-6.32,3.98-2.31,1.09-4.85,1.94-7.6,2.54-2.76.6-5.64.9-8.66.9-5.1,0-9.61-.73-13.53-2.18-3.93-1.46-7.23-3.41-9.91-5.85-2.68-2.44-4.71-5.24-6.08-8.38-1.38-3.15-2.07-6.38-2.07-9.71,0-2.13.31-4.25.94-6.36s1.52-4.13,2.69-6.08,2.65-3.77,4.45-5.46c1.79-1.69,3.86-3.15,6.2-4.37,2.34-1.22,4.95-2.18,7.84-2.89,2.89-.7,6.04-1.05,9.48-1.05ZM645.5,224.42c-2.7,0-5.23.33-7.57.97-2.34.65-4.42,1.6-6.24,2.85-.78.52-1.52,1.08-2.22,1.68-.7.6-1.35,1.26-1.95,1.99-.6.73-1.14,1.5-1.64,2.3-.5.81-.88,1.67-1.17,2.57-.29.91-.51,1.83-.66,2.77-.16.94-.23,1.92-.23,2.96,0,1.72.23,3.38.7,4.99.47,1.61,1.14,3.09,2.03,4.45.88,1.35,1.96,2.57,3.24,3.67,1.27,1.09,2.72,1.99,4.33,2.69,1.61.7,3.38,1.26,5.3,1.68,1.92.42,3.95.62,6.08.62s4.16-.21,6.08-.62c1.92-.42,3.72-1.04,5.38-1.87,1.04-.52,2.01-1.09,2.92-1.72.91-.62,1.74-1.33,2.5-2.11.75-.78,1.43-1.61,2.03-2.5.6-.88,1.1-1.81,1.52-2.77.42-.96.73-1.99.94-3.08.21-1.09.31-2.21.31-3.35,0-1.92-.25-3.68-.74-5.26-.5-1.59-1.2-3.05-2.11-4.41-.91-1.35-2.03-2.55-3.35-3.59-1.33-1.04-2.78-1.94-4.37-2.69-1.59-.75-3.32-1.31-5.19-1.68-1.87-.36-3.85-.55-5.93-.55Z" style="fill:#e0fd53; stroke-width:0px;"></path>
    <path d="M569.14,311.07c-3.38,1.14-6.14,2.3-8.27,3.47-2.13,1.17-3.76,2.37-4.88,3.59-1.12,1.22-1.83,2.54-2.15,3.94h47.42v7.64h-58.73v-1.01c0-3.85.73-7.14,2.18-9.87,1.46-2.73,3.44-5.1,5.97-7.1,2.52-2,5.47-3.71,8.85-5.11,3.38-1.4,6.99-2.68,10.84-3.82,2.65-.83,5.16-1.58,7.53-2.26,2.37-.68,4.48-1.4,6.36-2.18,1.87-.78,3.34-1.7,4.41-2.77s1.6-2.3,1.6-3.71c0-.99-.27-1.86-.82-2.61-.55-.75-1.43-1.39-2.65-1.91-1.22-.52-2.8-.91-4.72-1.17-1.92-.26-4.21-.39-6.86-.39-1.87,0-3.93.13-6.16.39-2.24.26-4.5.66-6.79,1.21-2.29.55-4.58,1.22-6.86,2.03-2.29.81-4.39,1.75-6.32,2.85,0-.05-.09-.25-.27-.58-.18-.34-.39-.75-.62-1.25-.23-.49-.51-1.03-.82-1.6-.31-.57-.6-1.1-.86-1.6-.26-.49-.47-.92-.62-1.29-.16-.36-.23-.52-.23-.47,2.13-1.25,4.42-2.34,6.86-3.28,2.44-.94,4.95-1.69,7.53-2.26s5.12-1.01,7.64-1.33c2.52-.31,4.93-.47,7.21-.47,4.47,0,8.32.31,11.54.94,3.22.62,5.89,1.53,7.99,2.73,2.11,1.2,3.65,2.64,4.64,4.33.99,1.69,1.48,3.58,1.48,5.66,0,1.56-.35,3.08-1.05,4.56-.7,1.48-1.81,2.89-3.31,4.21-1.51,1.33-3.48,2.56-5.93,3.71-2.44,1.14-5.46,2.21-9.05,3.2-4.68,1.25-8.71,2.45-12.09,3.59Z" style="fill:#e0fd53; stroke-width:0px;"></path>
    <path d="M673.89,317.54c-.73,1.72-1.75,3.26-3.08,4.64-1.33,1.38-2.95,2.59-4.88,3.63-1.92,1.04-4.03,1.9-6.32,2.57-2.29.68-4.76,1.2-7.41,1.56s-5.41.55-8.27.55c-3.02,0-5.93-.17-8.74-.51-2.81-.34-5.5-.82-8.07-1.44s-4.99-1.4-7.25-2.34c-2.26-.94-4.36-2.05-6.28-3.35l4.76-7.49c1.98,1.46,4.1,2.65,6.36,3.59,2.26.94,4.51,1.66,6.75,2.18,2.24.52,4.45.86,6.63,1.01,2.18.16,4.21.23,6.08.23,1.35,0,2.81-.06,4.37-.2,1.56-.13,3.09-.36,4.6-.7,1.51-.34,2.96-.75,4.37-1.25s2.64-1.1,3.71-1.83c1.07-.73,1.92-1.59,2.57-2.57.65-.99.97-2.13.97-3.43,0-1.72-.49-3.2-1.48-4.45-.99-1.25-2.34-2.3-4.06-3.16-1.72-.86-3.71-1.48-5.97-1.87s-4.69-.58-7.29-.58c-1.56,0-3.29.07-5.19.2-1.9.13-3.84.34-5.81.62-1.98.29-3.93.7-5.85,1.25-1.92.55-3.62,1.24-5.07,2.07l-7.72-2.18,3.28-25.35h50.23v7.64h-42.43l-1.64,11.86q0-.05,0,0c1.61-.67,3.35-1.22,5.23-1.64,1.87-.42,3.74-.75,5.62-1.01,1.87-.26,3.72-.43,5.54-.51,1.82-.08,3.51-.12,5.07-.12,3.95,0,7.61.35,10.96,1.05,3.35.7,6.29,1.75,8.81,3.16,2.52,1.4,4.48,3.16,5.89,5.26,1.4,2.11,2.11,4.54,2.11,7.29,0,2.03-.37,3.9-1.09,5.62Z" style="fill:#e0fd53; stroke-width:0px;"></path>
  </g>
</svg>
